<svg width="430" height="932" viewBox="0 0 430 932" fill="none" xmlns="http://www.w3.org/2000/svg">
  <rect width="430" height="932" fill="#F7F3ED"/>
  <circle cx="358" cy="124" r="118" fill="#F7C7A5" fill-opacity="0.18"/>
  <rect x="0" y="0" width="430" height="932" fill="url(#paint0_linear_101_2)" fill-opacity="0.35"/>

  <defs>
    <linearGradient id="paint0_linear_101_2" x1="215" y1="0" x2="215" y2="932" gradientUnits="userSpaceOnUse">
      <stop stop-color="#FFFDF9"/>
      <stop offset="1" stop-color="#F5EEE6"/>
    </linearGradient>
  </defs>

  <text x="24" y="52" fill="#171412" font-size="18" font-family="Arial, sans-serif">☰</text>
  <text x="184" y="52" fill="#171412" font-size="18" font-family="Arial, sans-serif" font-weight="700">Seline</text>
  <rect x="338" y="30" width="68" height="28" rx="14" fill="#FFFDF9" stroke="#E6DED3"/>
  <text x="354" y="49" fill="#171412" font-size="12" font-family="Arial, sans-serif" font-weight="700">New</text>

  <text x="24" y="110" fill="#8A7F75" font-size="11" font-family="Arial, sans-serif" font-weight="700">EMAIL  RECEIPTS  NOTES</text>
  <text x="24" y="146" fill="#171412" font-size="24" font-family="Arial, sans-serif" font-weight="700">You spent about $42</text>
  <text x="24" y="176" fill="#171412" font-size="24" font-family="Arial, sans-serif" font-weight="700">on coffee this month.</text>
  <text x="24" y="212" fill="#2D2723" font-size="15" font-family="Arial, sans-serif">Most of it came from three receipts, with one</text>
  <text x="24" y="234" fill="#2D2723" font-size="15" font-family="Arial, sans-serif">café visit note that matches the same pattern.</text>

  <rect x="24" y="264" width="382" height="142" rx="24" fill="#FFFDF9" stroke="#E6DED3"/>
  <circle cx="58" cy="298" r="14" fill="#E7F2EA"/>
  <text x="53" y="304" fill="#4C8B63" font-size="13" font-family="Arial, sans-serif">$</text>
  <text x="82" y="294" fill="#8A7F75" font-size="11" font-family="Arial, sans-serif" font-weight="700">RECEIPT</text>
  <text x="314" y="294" fill="#171412" font-size="16" font-family="Arial, sans-serif" font-weight="700">$18.50</text>
  <text x="82" y="322" fill="#171412" font-size="15" font-family="Arial, sans-serif" font-weight="700">Pilot Coffee Roasters</text>
  <text x="82" y="346" fill="#2D2723" font-size="13" font-family="Arial, sans-serif">3 receipts this month. Highest single spend</text>
  <text x="82" y="365" fill="#2D2723" font-size="13" font-family="Arial, sans-serif">was a beans purchase.</text>
  <rect x="82" y="376" width="72" height="22" rx="11" fill="#F4EEE6"/>
  <text x="101" y="391" fill="#6E655D" font-size="11" font-family="Arial, sans-serif">Coffee</text>

  <text x="24" y="432" fill="#8A7F75" font-size="11" font-family="Arial, sans-serif" font-weight="700">YOU COULD ALSO ASK</text>
  <rect x="24" y="448" width="162" height="32" rx="16" fill="#FFF7F1" stroke="#EAD7C7"/>
  <text x="45" y="469" fill="#171412" font-size="12" font-family="Arial, sans-serif">Which cafés were biggest?</text>
  <rect x="194" y="448" width="116" height="32" rx="16" fill="#FFF7F1" stroke="#EAD7C7"/>
  <text x="216" y="469" fill="#171412" font-size="12" font-family="Arial, sans-serif">Show receipts</text>

  <rect x="112" y="520" width="294" height="58" rx="24" fill="#F1EBE3" stroke="#E4D9CB"/>
  <text x="136" y="554" fill="#171412" font-size="14" font-family="Arial, sans-serif">what did i spend on coffee this month?</text>

  <rect x="16" y="792" width="398" height="120" rx="32" fill="#FFFDF9" stroke="#E6DED3"/>
  <rect x="24" y="746" width="126" height="30" rx="15" fill="#FFF7F1" stroke="#EAD7C7"/>
  <text x="43" y="766" fill="#171412" font-size="12" font-family="Arial, sans-serif">How is tomorrow?</text>
  <rect x="158" y="746" width="114" height="30" rx="15" fill="#FFF7F1" stroke="#EAD7C7"/>
  <text x="180" y="766" fill="#171412" font-size="12" font-family="Arial, sans-serif">Any new emails?</text>

  <circle cx="52" cy="852" r="18" fill="#F3ECE3"/>
  <text x="45" y="857" fill="#6E655D" font-size="14" font-family="Arial, sans-serif">◎</text>
  <text x="82" y="858" fill="#7A7067" font-size="14" font-family="Arial, sans-serif">Ask anything about your life</text>
  <circle cx="370" cy="852" r="22" fill="#F4A16C"/>
  <text x="363" y="858" fill="white" font-size="15" font-family="Arial, sans-serif">↑</text>
</svg>
