<svg width="1440" height="1100" viewBox="0 0 1440 1100" fill="none" xmlns="http://www.w3.org/2000/svg">
  <rect width="1440" height="1100" fill="#F6F2EA"/>
  <circle cx="1180" cy="120" r="320" fill="#EAE3D7"/>
  <circle cx="180" cy="960" r="260" fill="#EEE8DE"/>

  <rect x="24" y="24" width="276" height="1052" rx="28" fill="#FBF8F2" stroke="#E7E0D4"/>
  <text x="56" y="74" fill="#171717" font-family="Arial, Helvetica, sans-serif" font-size="26" font-weight="700">Seline</text>
  <rect x="56" y="98" width="212" height="48" rx="24" fill="#171717"/>
  <text x="112" y="128" fill="#F8F5EF" font-family="Arial, Helvetica, sans-serif" font-size="16" font-weight="700">New chat</text>

  <rect x="44" y="174" width="236" height="48" rx="16" fill="#F1ECE3" stroke="#E7E0D4"/>
  <text x="68" y="204" fill="#625C55" font-family="Arial, Helvetica, sans-serif" font-size="15">Search chats</text>

  <text x="56" y="264" fill="#8A8176" font-family="Arial, Helvetica, sans-serif" font-size="12" font-weight="700" letter-spacing="1.6">TODAY</text>

  <rect x="44" y="282" width="236" height="88" rx="20" fill="#E9E5DC"/>
  <text x="60" y="315" fill="#171717" font-family="Arial, Helvetica, sans-serif" font-size="15" font-weight="700">How is my day looking tomorrow?</text>
  <text x="60" y="342" fill="#6E675F" font-family="Arial, Helvetica, sans-serif" font-size="13">Calendar, visits, emails, and spending all merged…</text>
  <text x="60" y="361" fill="#9A9186" font-family="Arial, Helvetica, sans-serif" font-size="12">9:42 AM</text>

  <rect x="44" y="386" width="236" height="78" rx="18" fill="#FBF8F2"/>
  <text x="60" y="417" fill="#23201C" font-family="Arial, Helvetica, sans-serif" font-size="14" font-weight="700">When is my flight?</text>
  <text x="60" y="441" fill="#7C746A" font-family="Arial, Helvetica, sans-serif" font-size="13">Delta itinerary and airport timing</text>

  <rect x="44" y="478" width="236" height="78" rx="18" fill="#FBF8F2"/>
  <text x="60" y="509" fill="#23201C" font-family="Arial, Helvetica, sans-serif" font-size="14" font-weight="700">What did I do with Sarah last weekend?</text>
  <text x="60" y="533" fill="#7C746A" font-family="Arial, Helvetica, sans-serif" font-size="13">Visits, notes, receipts, people</text>

  <rect x="332" y="24" width="1084" height="1052" rx="28" fill="#F9F5EE" stroke="#E7E0D4"/>
  <rect x="332" y="24" width="1084" height="76" rx="28" fill="#F9F5EE"/>
  <circle cx="378" cy="62" r="18" fill="#171717"/>
  <circle cx="378" cy="62" r="7" fill="#8FA58C"/>
  <text x="408" y="68" fill="#171717" font-family="Arial, Helvetica, sans-serif" font-size="18" font-weight="700">Chat</text>
  <circle cx="1366" cy="62" r="20" fill="#EFE9DE" stroke="#E7E0D4"/>
  <path d="M1361 62H1371" stroke="#171717" stroke-width="2" stroke-linecap="round"/>
  <path d="M1366 57V67" stroke="#171717" stroke-width="2" stroke-linecap="round"/>
  <line x1="332" y1="99.5" x2="1416" y2="99.5" stroke="#E7E0D4"/>

  <text x="520" y="164" fill="#171717" font-family="Arial, Helvetica, sans-serif" font-size="15" font-weight="700">Seline</text>
  <circle cx="478" cy="160" r="20" fill="#171717"/>
  <circle cx="478" cy="160" r="8" fill="#8FA58C"/>
  <rect x="520" y="176" width="66" height="24" rx="12" fill="#ECE6DA"/>
  <text x="540" y="192" fill="#6B645B" font-family="Arial, Helvetica, sans-serif" font-size="11" font-weight="700">Events</text>
  <rect x="592" y="176" width="62" height="24" rx="12" fill="#ECE6DA"/>
  <text x="613" y="192" fill="#6B645B" font-family="Arial, Helvetica, sans-serif" font-size="11" font-weight="700">Emails</text>
  <rect x="660" y="176" width="58" height="24" rx="12" fill="#ECE6DA"/>
  <text x="682" y="192" fill="#6B645B" font-family="Arial, Helvetica, sans-serif" font-size="11" font-weight="700">Visits</text>

  <text x="478" y="244" fill="#171717" font-family="Arial, Helvetica, sans-serif" font-size="32" font-weight="700">Tomorrow looks busy but manageable.</text>
  <text x="478" y="292" fill="#312C27" font-family="Arial, Helvetica, sans-serif" font-size="21">You have a 9:00 AM client call, a 12:30 lunch in Yorkville, and an evening flight check-in email that landed today at 4:18 PM. The day is front-loaded, and your heaviest gap is between 2:00 and 5:30 PM.</text>
  <text x="478" y="338" fill="#312C27" font-family="Arial, Helvetica, sans-serif" font-size="21">Outside the calendar, you also have two unread travel-related emails and one receipt from tonight that suggests airport parking research may still be unresolved.</text>

  <text x="478" y="400" fill="#8A8176" font-family="Arial, Helvetica, sans-serif" font-size="12" font-weight="700" letter-spacing="1.6">EVIDENCE</text>

  <rect x="478" y="424" width="768" height="104" rx="22" fill="#FFFDFC" stroke="#E7E0D4"/>
  <circle cx="520" cy="468" r="14" fill="#DDE7DC"/>
  <text x="514" y="472" fill="#557051" font-family="Arial, Helvetica, sans-serif" font-size="11" font-weight="700">EV</text>
  <text x="548" y="452" fill="#8A8176" font-family="Arial, Helvetica, sans-serif" font-size="11" font-weight="700" letter-spacing="1.2">EVENT</text>
  <text x="1170" y="452" fill="#8A8176" font-family="Arial, Helvetica, sans-serif" font-size="12">9:00 AM</text>
  <text x="548" y="478" fill="#171717" font-family="Arial, Helvetica, sans-serif" font-size="18" font-weight="700">Client Strategy Call</text>
  <text x="548" y="504" fill="#4F4841" font-family="Arial, Helvetica, sans-serif" font-size="14">Zoom meeting · 45 minutes · still marked active</text>

  <rect x="478" y="542" width="768" height="104" rx="22" fill="#FFFDFC" stroke="#E7E0D4"/>
  <circle cx="520" cy="586" r="14" fill="#E7DFD2"/>
  <text x="514" y="590" fill="#896D4F" font-family="Arial, Helvetica, sans-serif" font-size="11" font-weight="700">EM</text>
  <text x="548" y="570" fill="#8A8176" font-family="Arial, Helvetica, sans-serif" font-size="11" font-weight="700" letter-spacing="1.2">EMAIL</text>
  <text x="1144" y="570" fill="#8A8176" font-family="Arial, Helvetica, sans-serif" font-size="12">Today · 4:18 PM</text>
  <text x="548" y="596" fill="#171717" font-family="Arial, Helvetica, sans-serif" font-size="18" font-weight="700">Check in for your flight to Atlanta</text>
  <text x="548" y="622" fill="#4F4841" font-family="Arial, Helvetica, sans-serif" font-size="14">Delta Air Lines · includes boarding window and booking details</text>

  <rect x="478" y="660" width="768" height="104" rx="22" fill="#FFFDFC" stroke="#E7E0D4"/>
  <circle cx="520" cy="704" r="14" fill="#DCE6EA"/>
  <text x="514" y="708" fill="#54717C" font-family="Arial, Helvetica, sans-serif" font-size="11" font-weight="700">RC</text>
  <text x="548" y="688" fill="#8A8176" font-family="Arial, Helvetica, sans-serif" font-size="11" font-weight="700" letter-spacing="1.2">RECEIPT</text>
  <text x="1170" y="688" fill="#8A8176" font-family="Arial, Helvetica, sans-serif" font-size="12">$32.50</text>
  <text x="548" y="714" fill="#171717" font-family="Arial, Helvetica, sans-serif" font-size="18" font-weight="700">Airport Parking Reservation</text>
  <text x="548" y="740" fill="#4F4841" font-family="Arial, Helvetica, sans-serif" font-size="14">Logged tonight · suggests travel logistics are still active</text>

  <text x="478" y="812" fill="#8A8176" font-family="Arial, Helvetica, sans-serif" font-size="12" font-weight="700" letter-spacing="1.6">YOU COULD ALSO ASK</text>
  <rect x="478" y="832" width="260" height="42" rx="21" fill="#F1ECE3" stroke="#E7E0D4"/>
  <text x="500" y="858" fill="#2C2722" font-family="Arial, Helvetica, sans-serif" font-size="14">What else happened that day?</text>
  <rect x="750" y="832" width="204" height="42" rx="21" fill="#F1ECE3" stroke="#E7E0D4"/>
  <text x="772" y="858" fill="#2C2722" font-family="Arial, Helvetica, sans-serif" font-size="14">Show me the exact email</text>

  <rect x="924" y="930" width="352" height="98" rx="26" fill="#FFFDFC" stroke="#E7E0D4"/>
  <text x="958" y="974" fill="#857B70" font-family="Arial, Helvetica, sans-serif" font-size="16">Ask Seline anything about your day, email, visits, notes…</text>
  <circle cx="1222" cy="979" r="26" fill="#171717"/>
  <path d="M1214 979H1230" stroke="#F8F5EF" stroke-width="2.4" stroke-linecap="round"/>
  <path d="M1222 971L1230 979L1222 987" stroke="#F8F5EF" stroke-width="2.4" stroke-linecap="round" stroke-linejoin="round"/>
</svg>
