<svg width="1440" height="980" viewBox="0 0 1440 980" fill="none" xmlns="http://www.w3.org/2000/svg">
  <rect width="1440" height="980" fill="#F7F3ED"/>
  <text x="88" y="86" fill="#171412" font-size="32" font-family="Arial, sans-serif" font-weight="700">Output Cards Detail</text>
  <text x="88" y="118" fill="#6E655D" font-size="16" font-family="Arial, sans-serif">Evidence cards carry the answer. Sources stay lighter. Follow-ups become pills.</text>

  <rect x="88" y="168" width="572" height="246" rx="28" fill="#FFFDF9" stroke="#E6DED3"/>
  <circle cx="136" cy="220" r="18" fill="#FCE6D8"/>
  <text x="129" y="226" fill="#D3783B" font-size="15" font-family="Arial, sans-serif">✉</text>
  <text x="166" y="214" fill="#8A7F75" font-size="11" font-family="Arial, sans-serif" font-weight="700">EMAIL</text>
  <text x="566" y="214" fill="#6E655D" font-size="12" font-family="Arial, sans-serif">Mon, 2:14 PM</text>
  <text x="166" y="248" fill="#171412" font-size="18" font-family="Arial, sans-serif" font-weight="700">Air Canada check-in reminder</text>
  <text x="166" y="282" fill="#2D2723" font-size="15" font-family="Arial, sans-serif">Toronto to San Francisco departs at 7:35 PM tomorrow. The airline recommends arriving</text>
  <text x="166" y="305" fill="#2D2723" font-size="15" font-family="Arial, sans-serif">at least 90 minutes early. This card is tap-first and readable without opening the email.</text>
  <rect x="166" y="336" width="96" height="28" rx="14" fill="#F4EEE6"/>
  <text x="193" y="354" fill="#6E655D" font-size="12" font-family="Arial, sans-serif">Air Canada</text>
  <rect x="272" y="336" width="88" height="28" rx="14" fill="#F4EEE6"/>
  <text x="296" y="354" fill="#6E655D" font-size="12" font-family="Arial, sans-serif">Flight</text>
  <rect x="370" y="336" width="112" height="28" rx="14" fill="#F4EEE6"/>
  <text x="396" y="354" fill="#6E655D" font-size="12" font-family="Arial, sans-serif">Exact record</text>
  <text x="166" y="388" fill="#9A8F85" font-size="12" font-family="Arial, sans-serif">Hover: border darkens, card lifts 2px, icon disc brightens.</text>

  <rect x="780" y="168" width="572" height="246" rx="28" fill="#FFFDF9" stroke="#E6DED3"/>
  <rect x="780" y="168" width="572" height="88" rx="28" fill="#F7F0E8"/>
  <text x="812" y="213" fill="#8A7F75" font-size="11" font-family="Arial, sans-serif" font-weight="700">PLACES</text>
  <text x="812" y="238" fill="#171412" font-size="20" font-family="Arial, sans-serif" font-weight="700">Nearby results block</text>
  <rect x="812" y="278" width="508" height="50" rx="18" fill="#FFFFFF" stroke="#E6DED3"/>
  <circle cx="842" cy="303" r="13" fill="#FCE2DB"/>
  <text x="838" y="308" fill="#C95B4D" font-size="12" font-family="Arial, sans-serif" font-weight="700">1</text>
  <text x="864" y="299" fill="#171412" font-size="15" font-family="Arial, sans-serif" font-weight="700">Niku BBQ</text>
  <text x="864" y="317" fill="#6E655D" font-size="12" font-family="Arial, sans-serif">Open now  •  4.6  •  1.1 km</text>
  <rect x="1222" y="289" width="72" height="26" rx="13" fill="#FCE6D8"/>
  <text x="1244" y="306" fill="#B86A24" font-size="12" font-family="Arial, sans-serif" font-weight="700">7 min</text>
  <rect x="812" y="336" width="508" height="50" rx="18" fill="#FFFFFF" stroke="#E6DED3"/>
  <circle cx="842" cy="361" r="13" fill="#FCE2DB"/>
  <text x="838" y="366" fill="#C95B4D" font-size="12" font-family="Arial, sans-serif" font-weight="700">2</text>
  <text x="864" y="357" fill="#171412" font-size="15" font-family="Arial, sans-serif" font-weight="700">Minami</text>
  <text x="864" y="375" fill="#6E655D" font-size="12" font-family="Arial, sans-serif">Closes at 10 PM  •  4.7  •  1.8 km</text>

  <rect x="88" y="476" width="572" height="182" rx="24" fill="#FFFDF9" stroke="#E6DED3"/>
  <text x="116" y="516" fill="#8A7F75" font-size="11" font-family="Arial, sans-serif" font-weight="700">SOURCES</text>
  <rect x="116" y="536" width="516" height="44" rx="14" fill="#FCF8F3" stroke="#ECE1D5"/>
  <text x="138" y="563" fill="#171412" font-size="14" font-family="Arial, sans-serif">Google Maps  •  Niku BBQ hours and rating</text>
  <rect x="116" y="590" width="516" height="44" rx="14" fill="#FCF8F3" stroke="#ECE1D5"/>
  <text x="138" y="617" fill="#171412" font-size="14" font-family="Arial, sans-serif">Restaurant website  •  Parking and reservation details</text>

  <rect x="780" y="476" width="572" height="182" rx="24" fill="#FFFDF9" stroke="#E6DED3"/>
  <text x="812" y="516" fill="#8A7F75" font-size="11" font-family="Arial, sans-serif" font-weight="700">FOLLOW-UPS</text>
  <rect x="812" y="540" width="164" height="34" rx="17" fill="#FFF7F1" stroke="#EAD7C7"/>
  <text x="835" y="562" fill="#171412" font-size="13" font-family="Arial, sans-serif">What should I book?</text>
  <rect x="988" y="540" width="140" height="34" rx="17" fill="#FFF7F1" stroke="#EAD7C7"/>
  <text x="1012" y="562" fill="#171412" font-size="13" font-family="Arial, sans-serif">Show parking</text>
  <rect x="1140" y="540" width="168" height="34" rx="17" fill="#FFF7F1" stroke="#EAD7C7"/>
  <text x="1164" y="562" fill="#171412" font-size="13" font-family="Arial, sans-serif">What else is nearby?</text>

  <rect x="88" y="722" width="1264" height="162" rx="30" fill="#171412"/>
  <text x="120" y="766" fill="#F5EFE8" font-size="20" font-family="Arial, sans-serif" font-weight="700">Dark mode treatment</text>
  <rect x="120" y="792" width="366" height="58" rx="20" fill="#221D1B" stroke="rgba(255,255,255,0.08)"/>
  <text x="148" y="816" fill="#F3A46F" font-size="11" font-family="Arial, sans-serif" font-weight="700">RECEIPT</text>
  <text x="148" y="836" fill="#F5EFE8" font-size="15" font-family="Arial, sans-serif">Matcha latte  •  $6.75  •  8:12 AM</text>
  <rect x="522" y="792" width="366" height="58" rx="20" fill="#221D1B" stroke="rgba(255,255,255,0.08)"/>
  <text x="550" y="816" fill="#F3A46F" font-size="11" font-family="Arial, sans-serif" font-weight="700">VISIT</text>
  <text x="550" y="836" fill="#F5EFE8" font-size="15" font-family="Arial, sans-serif">Sarah at Odeon  •  Friday 8:30 PM</text>
  <rect x="924" y="792" width="396" height="58" rx="20" fill="#221D1B" stroke="rgba(255,255,255,0.08)"/>
  <text x="952" y="816" fill="#F3A46F" font-size="11" font-family="Arial, sans-serif" font-weight="700">SOURCE LINK</text>
  <text x="952" y="836" fill="#F5EFE8" font-size="15" font-family="Arial, sans-serif">Google Maps  •  Parking garage near terminal</text>
</svg>
